<svg xmlns="http://www.w3.org/2000/svg" viewBox="0 0 400 300"><g id="_86_data_analysis" data-name="#86_data_analysis"><rect x="64.74" y="227.4" width="42.19" height="21.14" fill="#fff"/><path d="M106.93,249.05H64.74a.5.5,0,0,1-.5-.5V227.4a.5.5,0,0,1,.5-.5h42.19a.5.5,0,0,1,.5.5v21.15A.5.5,0,0,1,106.93,249.05Zm-41.69-1h41.19V227.9H65.24Z" fill="#231f20"/><rect x="121.82" y="194.54" width="42.19" height="54" fill="#fff"/><path d="M164,249.05H121.82a.51.51,0,0,1-.5-.5v-54a.51.51,0,0,1,.5-.5H164a.5.5,0,0,1,.5.5v54A.5.5,0,0,1,164,249.05Zm-41.69-1h41.19V195H122.32Z" fill="#231f20"/><rect x="178.9" y="140.54" width="42.19" height="108.01" fill="#fff"/><path d="M221.1,249.05H178.9a.51.51,0,0,1-.5-.5v-108a.5.5,0,0,1,.5-.5h42.2a.5.5,0,0,1,.5.5v108A.51.51,0,0,1,221.1,249.05Zm-41.7-1h41.2V141H179.4Z" fill="#231f20"/><rect x="235.99" y="100.52" width="42.19" height="148.03" fill="#fff"/><path d="M278.18,249.05H236a.5.5,0,0,1-.5-.5v-148a.5.5,0,0,1,.5-.5h42.19a.5.5,0,0,1,.5.5v148A.51.51,0,0,1,278.18,249.05Zm-41.69-1h41.19V101H236.49Z" fill="#231f20"/><rect x="293.07" y="181.43" width="42.19" height="67.11" fill="#fff"/><path d="M335.26,249.05H293.07a.5.5,0,0,1-.5-.5V181.43a.5.5,0,0,1,.5-.5h42.19a.5.5,0,0,1,.5.5v67.12A.5.5,0,0,1,335.26,249.05Zm-41.69-1h41.19V181.93H293.57Z" fill="#231f20"/><path d="M199.68,56a18.28,18.28,0,0,1,3.87-3.37,8,8,0,0,1,8.71.35,3.35,3.35,0,0,1,2.79-1.09c3.53.15,6.06,3.19,7.69,6,2.08,3.64,2.68,8,4.68,11.64,1.79,3.26,6.68,5.53,9.88,7.23A34.13,34.13,0,0,1,244,80.85c4.38,3.83,5.83,10.45,4.07,16A20.07,20.07,0,0,1,236.31,109a47.4,47.4,0,0,1-7,2,24.93,24.93,0,0,1-7.31.9c-1.88-.14-3.69-.71-5.55-1a39.37,39.37,0,0,1-5.43-.87c-4.81-1.5-7-5.6-9.26-9.71C199,95.21,198,89.46,196.55,84,194.48,76,193.93,62.59,199.68,56Z" fill="#fff"/><path d="M223.05,112.37c-.35,0-.71,0-1.06,0a24.12,24.12,0,0,1-3.45-.59c-.71-.16-1.42-.31-2.14-.43s-1.2-.16-1.8-.23a20,20,0,0,1-3.7-.66c-4.87-1.52-7.16-5.63-9.36-9.61l-.18-.33c-2.29-4.11-3.41-8.72-4.49-13.18-.26-1.08-.52-2.15-.8-3.22-2-7.65-2.76-21.53,3.23-28.46h0a18.81,18.81,0,0,1,4-3.47,8.47,8.47,0,0,1,8.9.13,4,4,0,0,1,2.88-.94c3.07.13,5.79,2.25,8.1,6.3a32.67,32.67,0,0,1,2.47,6.06,33.37,33.37,0,0,0,2.22,5.59c1.53,2.79,5.63,4.92,8.62,6.48l1.06.55,1.18.62a27.68,27.68,0,0,1,5.65,3.53c4.36,3.82,6.09,10.61,4.22,16.53a20.5,20.5,0,0,1-12.09,12.42,47.23,47.23,0,0,1-7.05,2A28.52,28.52,0,0,1,223.05,112.37Zm-23-56.09c-5.74,6.63-4.95,20.11-3,27.54.27,1.08.54,2.16.8,3.25C198.91,91.46,200,96,202.23,100l.18.32c2.21,4,4.3,7.75,8.79,9.15a18,18,0,0,0,3.51.61c.62.07,1.24.14,1.85.24s1.46.28,2.19.44a23.62,23.62,0,0,0,3.31.57,24.2,24.2,0,0,0,7.17-.89,45.43,45.43,0,0,0,6.9-2,19.45,19.45,0,0,0,11.5-11.79c1.76-5.55.15-11.91-3.92-15.48a26.75,26.75,0,0,0-5.45-3.39l-1.19-.62-1-.55c-3.28-1.71-7.36-3.84-9-6.89A34.72,34.72,0,0,1,224.69,64a32.61,32.61,0,0,0-2.38-5.88c-2.13-3.72-4.58-5.67-7.28-5.79a2.82,2.82,0,0,0-2.38.91.5.5,0,0,1-.68.09,7.45,7.45,0,0,0-8.16-.34,17.69,17.69,0,0,0-3.75,3.28Z" fill="#231f20"/><path d="M176,93.88S173.13,83.47,172.32,83s-.83,2.53-.83,2.53a16.42,16.42,0,0,0-6.42-3.36c-3.35-.68-4.16.32-3.62.83s4.83,1.33,4.83,1.33-5.77-.15-5.59,1,5.19.72,5.19.72-5.46.71-4.65,1.83,5,0,5,0-6,1.39-4.3,2.29,5.68-.81,6.38.26,1.77,6.09,1.77,6.09Z" fill="#fff"/><path d="M170.09,97a.54.54,0,0,1-.21,0,.47.47,0,0,1-.24-.31c-.29-1.38-1.17-5.12-1.71-5.94-.19-.29-1.52-.11-2.39,0-1.4.19-2.84.39-3.81-.12-.53-.28-.57-.65-.54-.85s.38-.65.9-.94a1.81,1.81,0,0,1-1.23-.63.8.8,0,0,1-.11-.81,2.12,2.12,0,0,1,1.2-.86c-.93-.16-1.62-.48-1.71-1.08a.78.78,0,0,1,.2-.66,4.1,4.1,0,0,1,2.33-.75,5,5,0,0,1-1.63-.67.84.84,0,0,1-.2-1c.42-.82,2-1,4.23-.57a15.69,15.69,0,0,1,5.91,2.89c.07-.83.26-1.73.73-2a.76.76,0,0,1,.73,0c.81.44,2.54,6.3,3.85,11.14a.45.45,0,0,1-.25.53L170.28,97A.45.45,0,0,1,170.09,97Zm-2.87-7.37a1.62,1.62,0,0,1,1.48.58,28.61,28.61,0,0,1,1.71,5.68l5-2.29a82.84,82.84,0,0,0-3.21-10,7.27,7.27,0,0,0-.25,2,.48.48,0,0,1-.27.42.47.47,0,0,1-.49-.08A16.05,16.05,0,0,0,165,82.66c-2.37-.48-3.16,0-3.23.09a28.29,28.29,0,0,0,4.62,1.18.46.46,0,0,1,.37.49.48.48,0,0,1-.47.41c-2.46-.06-4.87.2-5.15.57.23.28,2.47.44,4.72.24a.46.46,0,0,1,.49.41.45.45,0,0,1-.39.5c-2.11.28-4.14.84-4.35,1.21.33.37,2.14.27,3.85-.1l.7-.17a.45.45,0,0,1,.54.33.46.46,0,0,1-.32.56l-.69.16a12.73,12.73,0,0,0-3.49,1.29,6.72,6.72,0,0,0,3.23,0A14.19,14.19,0,0,1,167.22,89.66Z" fill="#231f20"/><path d="M182.83,107.16l-6.48-15.51s-8.77,2.45-8.59,3,4.12,17.6,4.83,17.6S182.83,107.16,182.83,107.16Z" fill="#9b4dca"/><path d="M152.93,170.3a4.68,4.68,0,0,1-2.6,1.27c-1.15,0-13.61-2.3-14.12-.6s.5,2.56,3.48,4c4,1.88,17.38,6.29,17.38,6.29l2.93-6.89Z" fill="#fff"/><path d="M157.07,181.68a.32.32,0,0,1-.14,0c-.55-.18-13.47-4.44-17.44-6.31-2.61-1.23-4.4-2.27-3.72-4.51.42-1.4,4.4-1.11,12.07,0,1.2.17,2.24.33,2.47.31a4.28,4.28,0,0,0,2.28-1.11.45.45,0,0,1,.57-.1l7.07,4a.45.45,0,0,1,.19.57l-2.93,6.89A.45.45,0,0,1,157.07,181.68Zm-18.55-10.89c-1,0-1.71.09-1.89.33-.36,1.21.07,1.91,3.25,3.4,3.53,1.67,14.68,5.39,16.93,6.14l2.61-6.12L153,170.86a4.92,4.92,0,0,1-2.66,1.16c-.29,0-1.11-.1-2.63-.31A81.86,81.86,0,0,0,138.52,170.79Z" fill="#231f20"/><path d="M181.74,176.8s-13.85,2.7-14.54,3.5.18,1.93,3.65,2.73,18.67,2.08,18.67,2.08.75-4.05.1-6.26S181.74,176.8,181.74,176.8Z" fill="#fff"/><path d="M189.52,185.57h0c-.62,0-15.26-1.29-18.73-2.09-2.42-.56-3.86-1.35-4.16-2.28a1.19,1.19,0,0,1,.26-1.2c.72-.83,10.59-2.83,14.81-3.65h.07c1.27,0,7.61,0,8.33,2.38S190,185,190,185.2A.45.45,0,0,1,189.52,185.57Zm-7.73-8.32c-6.44,1.26-13.62,2.87-14.27,3.37a.31.31,0,0,0-.07.3c.06.15.46,1,3.51,1.67s15.71,1.82,18.18,2a16,16,0,0,0,0-5.64C188.8,177.7,184.64,177.19,181.79,177.25Z" fill="#231f20"/><path d="M227.81,127.45S237.18,107,236,93.52s-9.94-14.26-13-14.45S203.83,76.72,197.93,84,193.56,126,193.56,126Z" fill="#9b4dca"/><polygon points="207.05 85.28 208.44 107.55 218.84 83.44 207.05 85.28" fill="#231f20"/><path d="M208.44,108.05h-.08a.5.5,0,0,1-.42-.46l-1.39-22.27a.5.5,0,0,1,.42-.53L218.76,83a.49.49,0,0,1,.47.18.52.52,0,0,1,.07.51l-10.4,24.11A.49.49,0,0,1,208.44,108.05Zm-.86-22.35,1.23,19.73L218,84.07Z" fill="#231f20"/><path d="M192.89,119.11a94,94,0,0,0-25.23,11.65C162.2,134.47,152,170.85,152,170.85s1.14,6.3,8.42,5.31L192.23,135S199.05,119,192.89,119.11Z" fill="#231f20"/><path d="M158.93,176.76a7.37,7.37,0,0,1-7.42-5.83.55.55,0,0,1,0-.22c.42-1.49,10.31-36.6,15.86-40.37a95.53,95.53,0,0,1,25.38-11.72.82.82,0,0,1,.22,0,2.6,2.6,0,0,1,2.29,1.14c2.38,3.51-2.07,14.2-2.58,15.4a.41.41,0,0,1-.07.11l-31.8,41.21a.45.45,0,0,1-.33.19A11,11,0,0,1,158.93,176.76Zm-6.41-5.9c.18.81,1.54,5.55,7.63,4.83l31.64-41c1.35-3.19,4.4-11.81,2.65-14.39a1.73,1.73,0,0,0-1.48-.7,94.83,94.83,0,0,0-25,11.57C163.75,134,156,158.31,152.52,170.86Z" fill="#231f20"/><path d="M227.81,127.45s-26.75-3.53-33.22-4.48c0,0-9.25,3.45-14,12.2s-1.68,42.93-1.68,42.93,6.65,2.31,11.59,1.36l10-37.81S226.11,144.27,227.81,127.45Z" fill="#231f20"/><path d="M187.83,180.19a31.71,31.71,0,0,1-9.09-1.61.51.51,0,0,1-.33-.43c-.13-1.4-3-34.43,1.73-43.21S194,122.65,194.41,122.5a.52.52,0,0,1,.25,0c6.39.94,33,4.44,33.22,4.47a.5.5,0,0,1,.43.55c-.72,7.11-5.81,11.9-14.71,13.85a48.35,48.35,0,0,1-12.78.84L191,179.58a.51.51,0,0,1-.39.37A14.76,14.76,0,0,1,187.83,180.19Zm-8.46-2.46c1.32.42,6.6,2,10.72,1.29L200,141.53a.51.51,0,0,1,.54-.37,46.93,46.93,0,0,0,12.91-.79c8.34-1.83,13-6,13.85-12.49-3.64-.48-26.49-3.5-32.61-4.39-1.08.43-9.31,4-13.63,11.92S179.08,174.21,179.37,177.73Z" fill="#231f20"/><path d="M197.93,84s-4.36,8.4-6.93,12.71a89.13,89.13,0,0,1-8.17,10.5s-19.78,7-19.91,7.41,1.88,7,1.88,7,20.77-1.49,24.19-3.11,10.4-9.61,10.4-9.61Z" fill="#9b4dca"/><path d="M207.05,78v7.26a5.33,5.33,0,0,0,6.45,2.8c4.75-1.21,5.34-4.63,5.34-4.63L218.62,70s-3.86-2.29-4.67-10.68c0,0-3.2,3.83-10.3,3,0,0-1.32,7.18-.81,10.88S207,78,207.05,78Z" fill="#fff"/><path d="M211.79,88.79a5.82,5.82,0,0,1-5.2-3.32.45.45,0,0,1,0-.2V78.35a6.58,6.58,0,0,1-4.2-5.06c-.52-3.74.75-10.75.81-11a.51.51,0,0,1,.55-.41c6.71.77,9.83-2.81,9.86-2.85a.5.5,0,0,1,.88.28c.77,8,4.39,10.27,4.43,10.3a.49.49,0,0,1,.24.42l.22,13.44c0,.25-.7,3.85-5.72,5.12A7.31,7.31,0,0,1,211.79,88.79Zm-4.24-3.63a4.8,4.8,0,0,0,5.83,2.42c4.35-1.11,4.94-4.1,5-4.23l-.21-13.09c-.86-.64-3.68-3.21-4.56-9.89-1.33,1.09-4.41,3-9.51,2.51-.27,1.63-1.14,7.22-.72,10.27a5.68,5.68,0,0,0,3.81,4.36l.21.11a.49.49,0,0,1,.19.39Z" fill="#231f20"/><path d="M215.83,69.79a3.08,3.08,0,0,1,1-1.67,5.35,5.35,0,0,1,1.66-.86,2.37,2.37,0,0,1,1-.2,2.13,2.13,0,0,1,.68.24,2.38,2.38,0,0,1,1.16,1.2,3,3,0,0,1,.08,1.36,5.58,5.58,0,0,1-.35,1.45,3.8,3.8,0,0,1-5,2" fill="#fff"/><path d="M217.61,74.14a4.21,4.21,0,0,1-1.68-.34.5.5,0,1,1,.39-.92,3.27,3.27,0,0,0,4.31-1.76,5.08,5.08,0,0,0,.32-1.33,2.33,2.33,0,0,0,0-1.12,2,2,0,0,0-.93-.93,1.53,1.53,0,0,0-.5-.18,2,2,0,0,0-.78.17,5.14,5.14,0,0,0-1.51.77,2.64,2.64,0,0,0-.87,1.41.5.5,0,1,1-1-.23,3.63,3.63,0,0,1,1.2-2,5.93,5.93,0,0,1,1.81-.94,2.65,2.65,0,0,1,1.23-.22,2.55,2.55,0,0,1,.86.29,2.89,2.89,0,0,1,1.4,1.46,3.39,3.39,0,0,1,.1,1.6,6.1,6.1,0,0,1-.38,1.58,4.31,4.31,0,0,1-2.34,2.33A4.23,4.23,0,0,1,217.61,74.14Z" fill="#231f20"/><path d="M209.7,66.83s-2.58,3.67-2,4.33,2.25.27,2.25.27" fill="#fff"/><path d="M208.93,72.05a2.12,2.12,0,0,1-1.61-.56c-.56-.64.11-2.3,2-4.95a.5.5,0,0,1,.82.58c-1.14,1.62-2.07,3.39-2,3.78a2.81,2.81,0,0,0,1.72,0,.49.49,0,0,1,.6.37.5.5,0,0,1-.37.6A5.15,5.15,0,0,1,208.93,72.05Z" fill="#231f20"/><ellipse cx="212.94" cy="66.34" rx="0.87" ry="0.62" transform="translate(133.27 274.67) rotate(-86.38)" fill="#231f20"/><ellipse cx="207.61" cy="66.39" rx="0.87" ry="0.62" transform="matrix(0.07, -1, 1, 0.07, 126.83, 268.83)" fill="#231f20"/><path d="M209.88,75.4a8.83,8.83,0,0,1-4.26-1.34.5.5,0,0,1,.54-.84s2.76,1.75,5,1a4.08,4.08,0,0,0,2.38-2.81.5.5,0,0,1,.63-.32.52.52,0,0,1,.32.64,5.06,5.06,0,0,1-3,3.44A4.71,4.71,0,0,1,209.88,75.4Z" fill="#231f20"/><path d="M207.05,78s4.52,1,7.18-.47c0,0-2.95,6.09-7.18,5.45Z" fill="#231f20"/><path d="M207.68,83.54a5.78,5.78,0,0,1-.71-.05.51.51,0,0,1-.42-.5V78a.51.51,0,0,1,.19-.39.49.49,0,0,1,.42-.09s4.36,1,6.82-.43a.5.5,0,0,1,.59.07.49.49,0,0,1,.11.58C214.56,78,211.83,83.54,207.68,83.54Zm-.13-1c2.51.06,4.51-2.43,5.52-4a13.71,13.71,0,0,1-5.52.08Z" fill="#231f20"/><path d="M231.66,82.36c3.69.65,18.65,35.25,13.53,39.19-8,6.17-35.81-.07-35.81-.07l2.27-10.72s17.89.49,18.14-3.18-10.4-20.67-9-23.21S231.66,82.36,231.66,82.36Z" fill="#9b4dca"/><path d="M213.57,114.35a40.79,40.79,0,0,1-8.9-.43,27.22,27.22,0,0,0-6.64-.76,25.05,25.05,0,0,0-8.57,2,.63.63,0,0,0-.28.2c-.27.37.36.72.81.73a11.84,11.84,0,0,0,3.5-.44,33.65,33.65,0,0,0-7.92,4.21c-.27.19-.58.51-.44.82s.7.26,1.06.09l6.4-2.92a16.11,16.11,0,0,0-4.54,2.76c-.2.17-.4.39-.35.64.09.43.73.35,1.13.15a37.11,37.11,0,0,0,5.55-3.39l-3.95,3c-.05.32.29.59.62.6a1.65,1.65,0,0,0,.91-.32l4.4-2.54-2.74,1.92c-.44.31-.93.79-.71,1.28s1.09.39,1.66.14a33.55,33.55,0,0,1,7.06-2.18,11.5,11.5,0,0,1,2.62-.53,23.34,23.34,0,0,1,4,.87l6,1.37" fill="#fff"/><path d="M193.59,122.76a1.28,1.28,0,0,1-.51-.09,1,1,0,0,1-.59-.56,1.08,1.08,0,0,1-.08-.57l-.22.13a2,2,0,0,1-1.16.38,1.15,1.15,0,0,1-.84-.41.91.91,0,0,1-.19-.38c-.32.17-.64.34-1,.5a1.62,1.62,0,0,1-1.33.11.84.84,0,0,1-.45-.57.86.86,0,0,1,.09-.6l-1,.44a1.65,1.65,0,0,1-1.19.13.85.85,0,0,1-.48-.45c-.1-.22-.23-.79.6-1.39a34.22,34.22,0,0,1,4.91-2.93H190a1.47,1.47,0,0,1-1.24-.68.74.74,0,0,1,.06-.78,1.18,1.18,0,0,1,.49-.35,25.54,25.54,0,0,1,8.72-2,24.3,24.3,0,0,1,5.93.62l.82.15a41.3,41.3,0,0,0,8.79.43.44.44,0,0,1,.48.44.46.46,0,0,1-.44.47,42,42,0,0,1-9-.44l-.82-.16a23.73,23.73,0,0,0-5.71-.6,24.42,24.42,0,0,0-8.36,1.9.78.78,0,0,0,.3.07,10.88,10.88,0,0,0,3.36-.42.46.46,0,0,1,.28.87,33,33,0,0,0-7.8,4.15.82.82,0,0,0-.29.3s.21-.06.45-.17L191,118c.48-.24,1-.47,1.47-.67a.46.46,0,0,1,.59.25.46.46,0,0,1-.23.59l-1.43.66a15.13,15.13,0,0,0-3,2,.71.71,0,0,0-.2.21c0-.05.26-.07.47-.18a36.61,36.61,0,0,0,5.49-3.35.47.47,0,0,1,.64.1.45.45,0,0,1-.09.63l-3.66,2.8.08,0a1.4,1.4,0,0,0,.65-.26l4.4-2.55a.47.47,0,0,1,.62.15.45.45,0,0,1-.13.62L193.88,121c-.39.27-.62.57-.56.71s0,.06.09.08a1.6,1.6,0,0,0,1-.17,33.25,33.25,0,0,1,7.16-2.21l.84-.21a6.46,6.46,0,0,1,1.89-.33,12.88,12.88,0,0,1,2.88.57c.42.12.82.23,1.21.32,2,.45,4,.9,6,1.37a.45.45,0,0,1,.34.55.46.46,0,0,1-.54.34c-2-.47-4-.92-6-1.37-.4-.09-.82-.21-1.25-.33a11.68,11.68,0,0,0-2.67-.53,5.28,5.28,0,0,0-1.62.29l-.9.23a32.24,32.24,0,0,0-7,2.14A3,3,0,0,1,193.59,122.76Z" fill="#231f20"/><path d="M199.85,87c-1,1-3.47,16.73-4.38,24.15" fill="#fff"/><path d="M195.47,111.6h-.05a.46.46,0,0,1-.4-.51c.56-4.61,3.22-23.12,4.51-24.42a.46.46,0,1,1,.65.64c-.83,1-3.24,15.6-4.25,23.89A.46.46,0,0,1,195.47,111.6Z" fill="#231f20"/><polygon points="162.52 125.94 162.69 127.75 203.41 133.7 203 131.81 162.52 125.94" fill="#fff"/><path d="M203.41,134.2h-.07l-40.72-5.95a.51.51,0,0,1-.43-.46L162,126a.49.49,0,0,1,.15-.41.52.52,0,0,1,.42-.13l40.48,5.86a.5.5,0,0,1,.41.39l.41,1.9a.48.48,0,0,1-.12.44A.49.49,0,0,1,203.41,134.2Zm-40.26-6.89,39.62,5.79-.18-.85-39.51-5.72Z" fill="#231f20"/><path d="M162.52,125.94s9.27-8,9.58-7.87,42,5.06,42,5.06L203,131.8Z" fill="#fff"/><path d="M203,132.3h-.07l-40.48-5.86a.52.52,0,0,1-.41-.36.51.51,0,0,1,.16-.52c9.47-8.12,9.72-8,10-8,.58.1,27.67,3.35,41.91,5a.5.5,0,0,1,.25.89l-11.07,8.68A.48.48,0,0,1,203,132.3Zm-39.31-6.69,39.17,5.67,9.95-7.8c-10.48-1.25-38-4.56-40.62-4.9C171.36,119.11,166.9,122.86,163.69,125.61Z" fill="#231f20"/><polygon points="203.41 133.7 214.23 124.94 214.07 123.13 203 131.81 203.41 133.7" fill="#fff"/><path d="M203.41,134.2a.51.51,0,0,1-.48-.39l-.41-1.9a.5.5,0,0,1,.18-.5l11.06-8.68a.5.5,0,0,1,.5-.06.48.48,0,0,1,.3.41l.17,1.81a.5.5,0,0,1-.19.43l-10.81,8.77A.46.46,0,0,1,203.41,134.2Zm.15-2.2.17.8,10-8.09-.06-.62Z" fill="#231f20"/><polygon points="162.52 125.94 154.7 99.72 197.63 107.04 203 131.81 162.52 125.94" fill="#fff"/><path d="M203,132.3h-.07l-40.48-5.86a.5.5,0,0,1-.4-.35l-7.83-26.23a.5.5,0,0,1,.1-.47.51.51,0,0,1,.46-.16l42.93,7.31a.53.53,0,0,1,.41.39l5.37,24.77a.49.49,0,0,1-.12.45A.51.51,0,0,1,203,132.3Zm-40.09-6.81,39.45,5.72-5.15-23.74-41.8-7.12Z" fill="#231f20"/><path d="M178,151.83a.49.49,0,0,1-.49-.46c0-.48-.82-11.61,2.67-16.49a.51.51,0,0,1,.7-.11.5.5,0,0,1,.11.69c-3.28,4.59-2.5,15.72-2.49,15.83a.5.5,0,0,1-.46.54Z" fill="#fff"/><path d="M214.23,105.39a.5.5,0,0,1-.34-.86c2.47-2.32,6.49-6.38,6.72-7.44s-1.56-2.31-2.2-2.68a.51.51,0,0,1-.25-.39.49.49,0,0,1,.18-.43,36.77,36.77,0,0,0,3.26-3c.18-.49-.53-3.56-1.3-6.11a.49.49,0,0,1,.34-.62.5.5,0,0,1,.62.33c.84,2.77,1.72,6.24,1.14,7a29.62,29.62,0,0,1-2.9,2.69c.89.63,2.4,1.94,2.08,3.38-.36,1.68-5.9,6.92-7,8A.48.48,0,0,1,214.23,105.39Z" fill="#231f20"/><path d="M222.92,125.2h-.09l-8.68-1.5a.5.5,0,0,1-.42-.48l-.28-10.4a.49.49,0,0,1,.45-.51l15.51-1.6-6.84-23.58a.5.5,0,0,1,.34-.62.49.49,0,0,1,.62.34l7,24.15a.51.51,0,0,1-.07.42.47.47,0,0,1-.36.22l-15.65,1.61.26,9.53,8.28,1.43a.5.5,0,0,1,.41.58A.49.49,0,0,1,222.92,125.2Z" fill="#231f20"/><path d="M206.06,105.39a.49.49,0,0,1-.44-.26c-.15-.27-3.61-6.62-4.15-9-.44-1.94,1.43-3.29,2.58-3.93a19,19,0,0,1-2.37-1.73c-.26-.26-1.06-1.06,3.49-5.8a.5.5,0,0,1,.71,0,.51.51,0,0,1,0,.71c-1.82,1.89-3.34,3.89-3.43,4.47a27.41,27.41,0,0,0,2.88,2,.5.5,0,0,1-.08.89S202,94,202.44,95.92c.51,2.23,4,8.67,4.06,8.73a.5.5,0,0,1-.2.68A.53.53,0,0,1,206.06,105.39Zm-3.6-15.5h0Z" fill="#231f20"/><path d="M170.71,88.26a.46.46,0,0,1-.45-.4,3.24,3.24,0,0,1,.92-2.63.46.46,0,0,1,.65,0,.45.45,0,0,1,0,.64,2.29,2.29,0,0,0-.63,1.84.46.46,0,0,1-.4.51Z" fill="#231f20"/><path d="M358.39,249.05H41.61a.5.5,0,0,1-.5-.5V53.23a.5.5,0,0,1,.5-.5.5.5,0,0,1,.5.5V248.05H358.39a.5.5,0,0,1,.5.5A.5.5,0,0,1,358.39,249.05Z" fill="#d1d3d4"/><path d="M74.52,69.5a40,40,0,0,0-3.79,3.8A41,41,0,0,0,60.56,97.78h18A23.38,23.38,0,0,1,99,77.31v-18A41,41,0,0,0,74.52,69.5Z" fill="#fff"/><path d="M78.54,98.28h-18a.48.48,0,0,1-.36-.15.53.53,0,0,1-.14-.38A41.26,41.26,0,0,1,70.35,73a39.87,39.87,0,0,1,3.85-3.84A41.15,41.15,0,0,1,99,58.84a.5.5,0,0,1,.37.13.52.52,0,0,1,.16.37v18a.5.5,0,0,1-.44.5,22.91,22.91,0,0,0-20,20A.5.5,0,0,1,78.54,98.28Zm-17.44-1h17A23.67,23.67,0,0,1,83,85.7a23.35,23.35,0,0,1,3.88-3.88,23.64,23.64,0,0,1,11.59-4.95v-17a40.21,40.21,0,0,0-23.66,10h0A40.78,40.78,0,0,0,61.1,97.28ZM74.52,69.5h0Z" fill="#d1d3d4"/><path d="M142.83,97.78A41,41,0,0,0,132.67,73.3L120,86a23.11,23.11,0,0,1,4.89,11.76,22.69,22.69,0,0,1,0,5.38A23.07,23.07,0,0,1,120,114.93a22.4,22.4,0,0,1-3.8,3.8,23.08,23.08,0,0,1-11.78,4.9,24.11,24.11,0,0,1-5.37,0,23.2,23.2,0,0,1-11.77-4.89,22.77,22.77,0,0,1-3.8-3.8,23.12,23.12,0,0,1-4.9-11.78h-18a40.92,40.92,0,0,0,10.18,24.48,37.77,37.77,0,0,0,3.79,3.8A40.93,40.93,0,0,0,99,141.6c.89.07,1.78.09,2.69.09s1.8,0,2.68-.09a41,41,0,0,0,24.49-10.16,37.77,37.77,0,0,0,3.79-3.8,41,41,0,0,0,10.17-24.48c.06-.89.09-1.79.09-2.69S142.89,98.67,142.83,97.78Z" fill="#fff"/><path d="M101.7,142.19c-1,0-1.87,0-2.73-.09A41.14,41.14,0,0,1,74.2,131.81,37.62,37.62,0,0,1,70.36,128a41.22,41.22,0,0,1-10.3-24.78.5.5,0,0,1,.14-.37.45.45,0,0,1,.36-.16h18a.5.5,0,0,1,.49.44,22.87,22.87,0,0,0,20,20,23.13,23.13,0,0,0,5.26,0,22.6,22.6,0,0,0,11.52-4.79,21.77,21.77,0,0,0,3.71-3.72,22.66,22.66,0,0,0,4.8-11.52,23.13,23.13,0,0,0,0-5.26,22.65,22.65,0,0,0-4.79-11.51.52.52,0,0,1,0-.67L132.32,73a.51.51,0,0,1,.37-.15.49.49,0,0,1,.36.17,41.3,41.3,0,0,1,10.28,24.78c.06.86.09,1.75.09,2.72s0,1.86-.09,2.72A41.21,41.21,0,0,1,133,128a38.87,38.87,0,0,1-3.85,3.85,41.19,41.19,0,0,1-24.78,10.28C103.56,142.16,102.67,142.19,101.7,142.19ZM61.1,103.66a40.15,40.15,0,0,0,10,23.65,36.88,36.88,0,0,0,3.75,3.75A40.17,40.17,0,0,0,99,141.1a39.21,39.21,0,0,0,5.31,0,40.19,40.19,0,0,0,24.19-10,39,39,0,0,0,3.75-3.75,40.22,40.22,0,0,0,10-24.19c.06-.84.09-1.7.09-2.65s0-1.81-.09-2.65h0A40.26,40.26,0,0,0,132.65,74l-12,12a23.65,23.65,0,0,1,4.72,11.67,25.77,25.77,0,0,1,.16,2.74,25.47,25.47,0,0,1-.16,2.74,23.69,23.69,0,0,1-5,12,22.92,22.92,0,0,1-3.88,3.87,23.62,23.62,0,0,1-12,5,25.19,25.19,0,0,1-5.49,0,23.7,23.7,0,0,1-12-5A23.41,23.41,0,0,1,83,115.25a23.7,23.7,0,0,1-4.94-11.59Z" fill="#d1d3d4"/><path d="M128.88,69.5a41,41,0,0,0-24.5-10.16v18a23.24,23.24,0,0,1,11.79,4.9Z" fill="#9b4dca"/><rect x="293.07" y="98.08" width="37.99" height="4.62" fill="#fff"/><path d="M331.05,103.2h-38a.5.5,0,0,1-.5-.5V98.08a.5.5,0,0,1,.5-.5h38a.5.5,0,0,1,.5.5v4.62A.5.5,0,0,1,331.05,103.2Zm-37.48-1h37V98.58h-37Z" fill="#d1d3d4"/><rect x="293.07" y="111.61" width="27.31" height="4.62" fill="#fff"/><path d="M320.38,116.73H293.07a.5.5,0,0,1-.5-.5v-4.62a.5.5,0,0,1,.5-.5h27.31a.5.5,0,0,1,.5.5v4.62A.5.5,0,0,1,320.38,116.73Zm-26.81-1h26.31v-3.62H293.57Z" fill="#d1d3d4"/><rect x="293.07" y="125.14" width="11.88" height="4.62" fill="#fff"/><path d="M305,130.25H293.07a.5.5,0,0,1-.5-.5v-4.61a.5.5,0,0,1,.5-.5H305a.5.5,0,0,1,.5.5v4.61A.5.5,0,0,1,305,130.25Zm-11.38-1h10.88v-3.61H293.57Z" fill="#d1d3d4"/><rect x="293.07" y="138.67" width="58.34" height="4.62" fill="#fff"/><path d="M351.41,143.78H293.07a.5.5,0,0,1-.5-.5v-4.61a.5.5,0,0,1,.5-.5h58.34a.5.5,0,0,1,.5.5v4.61A.5.5,0,0,1,351.41,143.78Zm-57.84-1h57.34v-3.61H293.57Z" fill="#d1d3d4"/><rect x="293.07" y="152.19" width="31.07" height="4.62" fill="#fff"/><path d="M324.14,157.31H293.07a.5.5,0,0,1-.5-.5v-4.62a.5.5,0,0,1,.5-.5h31.07a.5.5,0,0,1,.5.5v4.62A.5.5,0,0,1,324.14,157.31Zm-30.57-1h30.07v-3.62H293.57Z" fill="#d1d3d4"/><path d="M87.13,212.6a.5.5,0,0,1-.5-.49V193.87a.5.5,0,0,1,.5-.49.49.49,0,0,1,.49.49v18.24A.49.49,0,0,1,87.13,212.6Z" fill="#231f20"/><rect x="76.74" y="211.39" width="20.77" height="2.37" rx="1.02" fill="#fff"/><path d="M96.49,214.27H77.76a1.54,1.54,0,0,1-1.53-1.53v-.34a1.54,1.54,0,0,1,1.53-1.53H96.49A1.54,1.54,0,0,1,98,212.4v.34A1.54,1.54,0,0,1,96.49,214.27ZM77.76,211.9a.5.5,0,0,0-.5.5v.34a.5.5,0,0,0,.5.5H96.49a.51.51,0,0,0,.51-.5v-.34a.51.51,0,0,0-.51-.5Z" fill="#231f20"/><polygon points="93.73 227.4 80.53 227.4 77.66 213.75 96.59 213.75 93.73 227.4" fill="#fff"/><path d="M93.73,227.92H80.53a.52.52,0,0,1-.51-.41l-2.86-13.65a.51.51,0,0,1,.1-.43.53.53,0,0,1,.4-.19H96.59a.52.52,0,0,1,.51.62l-2.87,13.65A.51.51,0,0,1,93.73,227.92Zm-12.78-1H93.31L96,214.27H78.3Z" fill="#231f20"/><path d="M86.65,197.68s2.19-4.24,5.47-5.29,7.56-2,6.31-5.39-7.75-3.94-10.45-.52S86.19,196.24,86.65,197.68Z" fill="#231f20"/><path d="M87.13,202.09s1.82-4.54,5.45-5.39,4.8,1.51,3.68,3.48S88.7,200.44,87.13,202.09Z" fill="#231f20"/><path d="M87.13,199.8a8.56,8.56,0,0,0-4.24-5.41c-3.37-1.61-6.15.56-5.35,2.38s3.8,1.17,5.79,1.72A36.7,36.7,0,0,1,87.13,199.8Z" fill="#231f20"/><path d="M86.94,208.46a11.1,11.1,0,0,1,4.78-3.55c3.16-1.23,5.64.31,5,2.09C95.3,211.36,88.82,207,86.94,208.46Z" fill="#231f20"/><path d="M87.28,206.38s-1-4.63-5.48-5.32-5.68,2.19-5.06,4.05,3.81.58,5.46.34S87.28,206.38,87.28,206.38Z" fill="#231f20"/></g></svg>