<svg data-v-fde0c5aa="" xmlns="http://www.w3.org/2000/svg" viewBox="0 0 300 300" class="icon"><!----><defs data-v-fde0c5aa=""><!----></defs><rect data-v-fde0c5aa="" fill="transparent" x="0" y="0" width="300px" height="300px" class="logo-background-square"></rect><!----><defs data-v-fde0c5aa=""><linearGradient data-v-fde0c5aa="" gradientTransform="rotate(25)" id="764279b1-6c09-44d3-b3d5-7f23212be2f4" x1="0%" y1="0%" x2="100%" y2="0%"><stop data-v-fde0c5aa="" offset="0%" stop-color="#8D2CE3" stop-opacity="1"></stop><stop data-v-fde0c5aa="" offset="100%" stop-color="#F7C6F6" stop-opacity="1"></stop></linearGradient></defs><g data-v-fde0c5aa="" id="17fad8c8-28e8-486a-846b-d8e72ae4966a" fill="url(#764279b1-6c09-44d3-b3d5-7f23212be2f4)" stroke="none" transform="matrix(2.2244691848754883,0,0,2.2244691848754883,36.651057843692456,37.68210357755341)"><path d="M45.682 42.003L32.685 28.501c-2.059 2.181-3.547 4.738-4.162 7.393-.371 1.601-.79 5.783-.79 5.783l-5.056 10.096c-.08.179-.118.388-.118.601 0 .854.688 1.546 1.544 1.546h3.63v5.362c0 4.08 1.611 6.133 3.982 7.016l13.966-4.133V42.003zM33.833 45.29a2.257 2.257 0 1 1 .002-4.514 2.257 2.257 0 0 1-.002 4.514zM94.909 51.364L17.19 74.359l3.644 11.404 74.087-20.94-.012-13.459zM21.633 69.279c-6.609-5.851-10.792-14.384-10.792-23.884 0-10.623 5.227-20.037 13.232-25.84l-2.709-2.815C12.634 23.273 6.96 33.675 6.96 45.395c0 9.8 3.965 18.688 10.367 25.158l4.306-1.274zM61.684 47.275c2.73 0 4.952-2.221 4.952-4.952s-2.222-4.953-4.952-4.953-4.953 2.222-4.953 4.953 2.222 4.952 4.953 4.952z"></path><path d="M94.907 47.6l-.002-1.513c0-24.838-20.294-45.045-45.236-45.045-10.379 0-20.519 3.587-28.551 10.102l-.072.06 28.245 29.345v20.548L94.907 47.6zM61.684 34.663a7.61 7.61 0 0 1 4.147 1.229l5.062-5.062 1.914 1.915-4.998 4.997a7.612 7.612 0 0 1 1.534 4.58c0 4.224-3.436 7.659-7.659 7.659-4.225 0-7.661-3.436-7.661-7.659s3.436-7.659 7.661-7.659z"></path><g><path d="M67.171 82.44c11.377 0 21.792 6.712 27.773 17.502h.007l-.026-31.367-73.077 20.654c-2.525 3.826-4.456 7.692-6.821 10.713h24.375C45.488 88.983 55.864 82.44 67.171 82.44z"></path><path d="M67.171 86.155c-9.31 0-17.937 5.115-23.449 13.787h46.902c-5.442-8.55-14.091-13.787-23.453-13.787z"></path></g></g><!----></svg>